# xmcd
#
# Track frame offsets:
#	150
#	12552
#	23615
#	42053
#	58877
#	71321
#	87408
#	101627
#	116442
#	131823
#	152614
#
# Disc length: 2177 seconds
#
# Revision: 1
# Processed by: cddbd v1.5.1PL0 Copyright (c) Steve Scherf et al.
# Submitted via: audiograbber 1.83.01
#
DISCID=8a087f0b
DTITLE=Profil - Country for Jesus
DYEAR=1994
DGENRE=
TTITLE0=Wo ist die Zeit hin
TTITLE1=Ich fühl mich gut
TTITLE2=Lied von der Sonne
TTITLE3=Weil du mich liebst
TTITLE4=Er ist links
TTITLE5=Andy
TTITLE6=Heidensong
TTITLE7=Ich lass dich nicht fallen
TTITLE8=Bitte halt an
TTITLE9=Auf ewig geborgen
TTITLE10=There are no words
EXTD=
EXTT0=
EXTT1=
EXTT2=
EXTT3=
EXTT4=
EXTT5=
EXTT6=
EXTT7=
EXTT8=
EXTT9=
EXTT10=
PLAYORDER=
